#usda 1.0
(
    defaultPrim = "Asset"
    metersPerUnit = 1
    upAxis = "Z"
)

def Xform "Asset" (
    prepend apiSchemas = ["PhysicsRigidBodyAPI", "PhysicsMassAPI"]
)
{
    float physics:mass = 0.08

    def Material "Material" (
        prepend apiSchemas = ["PhysicsMaterialAPI"]
    )
    {
        token outputs:surface.connect = </Asset/Material/Shader.outputs:surface>
        float physics:dynamicFriction = 1
        float physics:restitution = 0
        float physics:staticFriction = 1.2

        def Shader "Shader"
        {
            uniform token info:id = "UsdPreviewSurface"
            color3f inputs:diffuseColor = (0.58, 0.6, 0.63)
            float inputs:metallic = 0.95
            float inputs:roughness = 0.13
            token outputs:surface
        }
    }

    def Cylinder "piece_001" (
        prepend apiSchemas = ["PhysicsCollisionAPI", "MaterialBindingAPI"]
    )
    {
        uniform token axis = "Z"
        double height = 0.004
        rel material:binding = </Asset/Material>
        rel material:binding:physics = </Asset/Material>
        double radius = 0.014
        float3 xformOp:rotateXYZ = (0, 0, 0)
        double3 xformOp:translate = (0, 0, 0.002)
        uniform token[] xformOpOrder = ["xformOp:translate", "xformOp:rotateXYZ"]
    }

    def Mesh "piece_002" (
        prepend apiSchemas = ["PhysicsCollisionAPI", "PhysicsMeshCollisionAPI", "MaterialBindingAPI"]
    )
    {
        int[] faceVertexCounts = [4, 4, 4, 4, 4, 4]
        int[] faceVertexIndices = [3, 2, 1, 0, 4, 5, 6, 7, 0, 1, 5, 4, 1, 2, 6, 5, 2, 3, 7, 6, 3, 0, 4, 7]
        rel material:binding = </Asset/Material>
        rel material:binding:physics = </Asset/Material>
        uniform token physics:approximation = "convexHull"
        point3f[] points = [(0.014, 0, 0.004), (0.013522961, 0.0036234667, 0.004), (0.008693333, 0.0023293714, 0.004), (0.009, 0, 0.004), (0.014, 0, 0.06), (0.013522961, 0.0036234667, 0.06), (0.008693333, 0.0023293714, 0.06), (0.009, 0, 0.06)]
        uniform token subdivisionScheme = "none"
        float3 xformOp:rotateXYZ = (0, 0, 0)
        double3 xformOp:translate = (0, 0, 0)
        uniform token[] xformOpOrder = ["xformOp:translate", "xformOp:rotateXYZ"]
    }

    def Mesh "piece_003" (
        prepend apiSchemas = ["PhysicsCollisionAPI", "PhysicsMeshCollisionAPI", "MaterialBindingAPI"]
    )
    {
        int[] faceVertexCounts = [4, 4, 4, 4, 4, 4]
        int[] faceVertexIndices = [3, 2, 1, 0, 4, 5, 6, 7, 0, 1, 5, 4, 1, 2, 6, 5, 2, 3, 7, 6, 3, 0, 4, 7]
        rel material:binding = </Asset/Material>
        rel material:binding:physics = </Asset/Material>
        uniform token physics:approximation = "convexHull"
        point3f[] points = [(0.013522961, 0.0036234667, 0.004), (0.012124356, 0.007, 0.004), (0.007794229, 0.0045, 0.004), (0.008693333, 0.0023293714, 0.004), (0.013522961, 0.0036234667, 0.06), (0.012124356, 0.007, 0.06), (0.007794229, 0.0045, 0.06), (0.008693333, 0.0023293714, 0.06)]
        uniform token subdivisionScheme = "none"
        float3 xformOp:rotateXYZ = (0, 0, 0)
        double3 xformOp:translate = (0, 0, 0)
        uniform token[] xformOpOrder = ["xformOp:translate", "xformOp:rotateXYZ"]
    }

    def Mesh "piece_004" (
        prepend apiSchemas = ["PhysicsCollisionAPI", "PhysicsMeshCollisionAPI", "MaterialBindingAPI"]
    )
    {
        int[] faceVertexCounts = [4, 4, 4, 4, 4, 4]
        int[] faceVertexIndices = [3, 2, 1, 0, 4, 5, 6, 7, 0, 1, 5, 4, 1, 2, 6, 5, 2, 3, 7, 6, 3, 0, 4, 7]
        rel material:binding = </Asset/Material>
        rel material:binding:physics = </Asset/Material>
        uniform token physics:approximation = "convexHull"
        point3f[] points = [(0.012124356, 0.007, 0.004), (0.009899495, 0.009899495, 0.004), (0.006363961, 0.006363961, 0.004), (0.007794229, 0.0045, 0.004), (0.012124356, 0.007, 0.06), (0.009899495, 0.009899495, 0.06), (0.006363961, 0.006363961, 0.06), (0.007794229, 0.0045, 0.06)]
        uniform token subdivisionScheme = "none"
        float3 xformOp:rotateXYZ = (0, 0, 0)
        double3 xformOp:translate = (0, 0, 0)
        uniform token[] xformOpOrder = ["xformOp:translate", "xformOp:rotateXYZ"]
    }

    def Mesh "piece_005" (
        prepend apiSchemas = ["PhysicsCollisionAPI", "PhysicsMeshCollisionAPI", "MaterialBindingAPI"]
    )
    {
        int[] faceVertexCounts = [4, 4, 4, 4, 4, 4]
        int[] faceVertexIndices = [3, 2, 1, 0, 4, 5, 6, 7, 0, 1, 5, 4, 1, 2, 6, 5, 2, 3, 7, 6, 3, 0, 4, 7]
        rel material:binding = </Asset/Material>
        rel material:binding:physics = </Asset/Material>
        uniform token physics:approximation = "convexHull"
        point3f[] points = [(0.009899495, 0.009899495, 0.004), (0.007, 0.012124356, 0.004), (0.0045, 0.007794229, 0.004), (0.006363961, 0.006363961, 0.004), (0.009899495, 0.009899495, 0.06), (0.007, 0.012124356, 0.06), (0.0045, 0.007794229, 0.06), (0.006363961, 0.006363961, 0.06)]
        uniform token subdivisionScheme = "none"
        float3 xformOp:rotateXYZ = (0, 0, 0)
        double3 xformOp:translate = (0, 0, 0)
        uniform token[] xformOpOrder = ["xformOp:translate", "xformOp:rotateXYZ"]
    }

    def Mesh "piece_006" (
        prepend apiSchemas = ["PhysicsCollisionAPI", "PhysicsMeshCollisionAPI", "MaterialBindingAPI"]
    )
    {
        int[] faceVertexCounts = [4, 4, 4, 4, 4, 4]
        int[] faceVertexIndices = [3, 2, 1, 0, 4, 5, 6, 7, 0, 1, 5, 4, 1, 2, 6, 5, 2, 3, 7, 6, 3, 0, 4, 7]
        rel material:binding = </Asset/Material>
        rel material:binding:physics = </Asset/Material>
        uniform token physics:approximation = "convexHull"
        point3f[] points = [(0.007, 0.012124356, 0.004), (0.0036234667, 0.013522961, 0.004), (0.0023293714, 0.008693333, 0.004), (0.0045, 0.007794229, 0.004), (0.007, 0.012124356, 0.06), (0.0036234667, 0.013522961, 0.06), (0.0023293714, 0.008693333, 0.06), (0.0045, 0.007794229, 0.06)]
        uniform token subdivisionScheme = "none"
        float3 xformOp:rotateXYZ = (0, 0, 0)
        double3 xformOp:translate = (0, 0, 0)
        uniform token[] xformOpOrder = ["xformOp:translate", "xformOp:rotateXYZ"]
    }

    def Mesh "piece_007" (
        prepend apiSchemas = ["PhysicsCollisionAPI", "PhysicsMeshCollisionAPI", "MaterialBindingAPI"]
    )
    {
        int[] faceVertexCounts = [4, 4, 4, 4, 4, 4]
        int[] faceVertexIndices = [3, 2, 1, 0, 4, 5, 6, 7, 0, 1, 5, 4, 1, 2, 6, 5, 2, 3, 7, 6, 3, 0, 4, 7]
        rel material:binding = </Asset/Material>
        rel material:binding:physics = </Asset/Material>
        uniform token physics:approximation = "convexHull"
        point3f[] points = [(0.0036234667, 0.013522961, 0.004), (8.5725276e-19, 0.014, 0.004), (5.5109104e-19, 0.009, 0.004), (0.0023293714, 0.008693333, 0.004), (0.0036234667, 0.013522961, 0.06), (8.5725276e-19, 0.014, 0.06), (5.5109104e-19, 0.009, 0.06), (0.0023293714, 0.008693333, 0.06)]
        uniform token subdivisionScheme = "none"
        float3 xformOp:rotateXYZ = (0, 0, 0)
        double3 xformOp:translate = (0, 0, 0)
        uniform token[] xformOpOrder = ["xformOp:translate", "xformOp:rotateXYZ"]
    }

    def Mesh "piece_008" (
        prepend apiSchemas = ["PhysicsCollisionAPI", "PhysicsMeshCollisionAPI", "MaterialBindingAPI"]
    )
    {
        int[] faceVertexCounts = [4, 4, 4, 4, 4, 4]
        int[] faceVertexIndices = [3, 2, 1, 0, 4, 5, 6, 7, 0, 1, 5, 4, 1, 2, 6, 5, 2, 3, 7, 6, 3, 0, 4, 7]
        rel material:binding = </Asset/Material>
        rel material:binding:physics = </Asset/Material>
        uniform token physics:approximation = "convexHull"
        point3f[] points = [(8.5725276e-19, 0.014, 0.004), (-0.0036234667, 0.013522961, 0.004), (-0.0023293714, 0.008693333, 0.004), (5.5109104e-19, 0.009, 0.004), (8.5725276e-19, 0.014, 0.06), (-0.0036234667, 0.013522961, 0.06), (-0.0023293714, 0.008693333, 0.06), (5.5109104e-19, 0.009, 0.06)]
        uniform token subdivisionScheme = "none"
        float3 xformOp:rotateXYZ = (0, 0, 0)
        double3 xformOp:translate = (0, 0, 0)
        uniform token[] xformOpOrder = ["xformOp:translate", "xformOp:rotateXYZ"]
    }

    def Mesh "piece_009" (
        prepend apiSchemas = ["PhysicsCollisionAPI", "PhysicsMeshCollisionAPI", "MaterialBindingAPI"]
    )
    {
        int[] faceVertexCounts = [4, 4, 4, 4, 4, 4]
        int[] faceVertexIndices = [3, 2, 1, 0, 4, 5, 6, 7, 0, 1, 5, 4, 1, 2, 6, 5, 2, 3, 7, 6, 3, 0, 4, 7]
        rel material:binding = </Asset/Material>
        rel material:binding:physics = </Asset/Material>
        uniform token physics:approximation = "convexHull"
        point3f[] points = [(-0.0036234667, 0.013522961, 0.004), (-0.007, 0.012124356, 0.004), (-0.0045, 0.007794229, 0.004), (-0.0023293714, 0.008693333, 0.004), (-0.0036234667, 0.013522961, 0.06), (-0.007, 0.012124356, 0.06), (-0.0045, 0.007794229, 0.06), (-0.0023293714, 0.008693333, 0.06)]
        uniform token subdivisionScheme = "none"
        float3 xformOp:rotateXYZ = (0, 0, 0)
        double3 xformOp:translate = (0, 0, 0)
        uniform token[] xformOpOrder = ["xformOp:translate", "xformOp:rotateXYZ"]
    }

    def Mesh "piece_010" (
        prepend apiSchemas = ["PhysicsCollisionAPI", "PhysicsMeshCollisionAPI", "MaterialBindingAPI"]
    )
    {
        int[] faceVertexCounts = [4, 4, 4, 4, 4, 4]
        int[] faceVertexIndices = [3, 2, 1, 0, 4, 5, 6, 7, 0, 1, 5, 4, 1, 2, 6, 5, 2, 3, 7, 6, 3, 0, 4, 7]
        rel material:binding = </Asset/Material>
        rel material:binding:physics = </Asset/Material>
        uniform token physics:approximation = "convexHull"
        point3f[] points = [(-0.007, 0.012124356, 0.004), (-0.009899495, 0.009899495, 0.004), (-0.006363961, 0.006363961, 0.004), (-0.0045, 0.007794229, 0.004), (-0.007, 0.012124356, 0.06), (-0.009899495, 0.009899495, 0.06), (-0.006363961, 0.006363961, 0.06), (-0.0045, 0.007794229, 0.06)]
        uniform token subdivisionScheme = "none"
        float3 xformOp:rotateXYZ = (0, 0, 0)
        double3 xformOp:translate = (0, 0, 0)
        uniform token[] xformOpOrder = ["xformOp:translate", "xformOp:rotateXYZ"]
    }

    def Mesh "piece_011" (
        prepend apiSchemas = ["PhysicsCollisionAPI", "PhysicsMeshCollisionAPI", "MaterialBindingAPI"]
    )
    {
        int[] faceVertexCounts = [4, 4, 4, 4, 4, 4]
        int[] faceVertexIndices = [3, 2, 1, 0, 4, 5, 6, 7, 0, 1, 5, 4, 1, 2, 6, 5, 2, 3, 7, 6, 3, 0, 4, 7]
        rel material:binding = </Asset/Material>
        rel material:binding:physics = </Asset/Material>
        uniform token physics:approximation = "convexHull"
        point3f[] points = [(-0.009899495, 0.009899495, 0.004), (-0.012124356, 0.007, 0.004), (-0.007794229, 0.0045, 0.004), (-0.006363961, 0.006363961, 0.004), (-0.009899495, 0.009899495, 0.06), (-0.012124356, 0.007, 0.06), (-0.007794229, 0.0045, 0.06), (-0.006363961, 0.006363961, 0.06)]
        uniform token subdivisionScheme = "none"
        float3 xformOp:rotateXYZ = (0, 0, 0)
        double3 xformOp:translate = (0, 0, 0)
        uniform token[] xformOpOrder = ["xformOp:translate", "xformOp:rotateXYZ"]
    }

    def Mesh "piece_012" (
        prepend apiSchemas = ["PhysicsCollisionAPI", "PhysicsMeshCollisionAPI", "MaterialBindingAPI"]
    )
    {
        int[] faceVertexCounts = [4, 4, 4, 4, 4, 4]
        int[] faceVertexIndices = [3, 2, 1, 0, 4, 5, 6, 7, 0, 1, 5, 4, 1, 2, 6, 5, 2, 3, 7, 6, 3, 0, 4, 7]
        rel material:binding = </Asset/Material>
        rel material:binding:physics = </Asset/Material>
        uniform token physics:approximation = "convexHull"
        point3f[] points = [(-0.012124356, 0.007, 0.004), (-0.013522961, 0.0036234667, 0.004), (-0.008693333, 0.0023293714, 0.004), (-0.007794229, 0.0045, 0.004), (-0.012124356, 0.007, 0.06), (-0.013522961, 0.0036234667, 0.06), (-0.008693333, 0.0023293714, 0.06), (-0.007794229, 0.0045, 0.06)]
        uniform token subdivisionScheme = "none"
        float3 xformOp:rotateXYZ = (0, 0, 0)
        double3 xformOp:translate = (0, 0, 0)
        uniform token[] xformOpOrder = ["xformOp:translate", "xformOp:rotateXYZ"]
    }

    def Mesh "piece_013" (
        prepend apiSchemas = ["PhysicsCollisionAPI", "PhysicsMeshCollisionAPI", "MaterialBindingAPI"]
    )
    {
        int[] faceVertexCounts = [4, 4, 4, 4, 4, 4]
        int[] faceVertexIndices = [3, 2, 1, 0, 4, 5, 6, 7, 0, 1, 5, 4, 1, 2, 6, 5, 2, 3, 7, 6, 3, 0, 4, 7]
        rel material:binding = </Asset/Material>
        rel material:binding:physics = </Asset/Material>
        uniform token physics:approximation = "convexHull"
        point3f[] points = [(-0.013522961, 0.0036234667, 0.004), (-0.014, 1.7145055e-18, 0.004), (-0.009, 1.1021821e-18, 0.004), (-0.008693333, 0.0023293714, 0.004), (-0.013522961, 0.0036234667, 0.06), (-0.014, 1.7145055e-18, 0.06), (-0.009, 1.1021821e-18, 0.06), (-0.008693333, 0.0023293714, 0.06)]
        uniform token subdivisionScheme = "none"
        float3 xformOp:rotateXYZ = (0, 0, 0)
        double3 xformOp:translate = (0, 0, 0)
        uniform token[] xformOpOrder = ["xformOp:translate", "xformOp:rotateXYZ"]
    }

    def Mesh "piece_014" (
        prepend apiSchemas = ["PhysicsCollisionAPI", "PhysicsMeshCollisionAPI", "MaterialBindingAPI"]
    )
    {
        int[] faceVertexCounts = [4, 4, 4, 4, 4, 4]
        int[] faceVertexIndices = [3, 2, 1, 0, 4, 5, 6, 7, 0, 1, 5, 4, 1, 2, 6, 5, 2, 3, 7, 6, 3, 0, 4, 7]
        rel material:binding = </Asset/Material>
        rel material:binding:physics = </Asset/Material>
        uniform token physics:approximation = "convexHull"
        point3f[] points = [(-0.014, 1.7145055e-18, 0.004), (-0.013522961, -0.0036234667, 0.004), (-0.008693333, -0.0023293714, 0.004), (-0.009, 1.1021821e-18, 0.004), (-0.014, 1.7145055e-18, 0.06), (-0.013522961, -0.0036234667, 0.06), (-0.008693333, -0.0023293714, 0.06), (-0.009, 1.1021821e-18, 0.06)]
        uniform token subdivisionScheme = "none"
        float3 xformOp:rotateXYZ = (0, 0, 0)
        double3 xformOp:translate = (0, 0, 0)
        uniform token[] xformOpOrder = ["xformOp:translate", "xformOp:rotateXYZ"]
    }

    def Mesh "piece_015" (
        prepend apiSchemas = ["PhysicsCollisionAPI", "PhysicsMeshCollisionAPI", "MaterialBindingAPI"]
    )
    {
        int[] faceVertexCounts = [4, 4, 4, 4, 4, 4]
        int[] faceVertexIndices = [3, 2, 1, 0, 4, 5, 6, 7, 0, 1, 5, 4, 1, 2, 6, 5, 2, 3, 7, 6, 3, 0, 4, 7]
        rel material:binding = </Asset/Material>
        rel material:binding:physics = </Asset/Material>
        uniform token physics:approximation = "convexHull"
        point3f[] points = [(-0.013522961, -0.0036234667, 0.004), (-0.012124356, -0.007, 0.004), (-0.007794229, -0.0045, 0.004), (-0.008693333, -0.0023293714, 0.004), (-0.013522961, -0.0036234667, 0.06), (-0.012124356, -0.007, 0.06), (-0.007794229, -0.0045, 0.06), (-0.008693333, -0.0023293714, 0.06)]
        uniform token subdivisionScheme = "none"
        float3 xformOp:rotateXYZ = (0, 0, 0)
        double3 xformOp:translate = (0, 0, 0)
        uniform token[] xformOpOrder = ["xformOp:translate", "xformOp:rotateXYZ"]
    }

    def Mesh "piece_016" (
        prepend apiSchemas = ["PhysicsCollisionAPI", "PhysicsMeshCollisionAPI", "MaterialBindingAPI"]
    )
    {
        int[] faceVertexCounts = [4, 4, 4, 4, 4, 4]
        int[] faceVertexIndices = [3, 2, 1, 0, 4, 5, 6, 7, 0, 1, 5, 4, 1, 2, 6, 5, 2, 3, 7, 6, 3, 0, 4, 7]
        rel material:binding = </Asset/Material>
        rel material:binding:physics = </Asset/Material>
        uniform token physics:approximation = "convexHull"
        point3f[] points = [(-0.012124356, -0.007, 0.004), (-0.009899495, -0.009899495, 0.004), (-0.006363961, -0.006363961, 0.004), (-0.007794229, -0.0045, 0.004), (-0.012124356, -0.007, 0.06), (-0.009899495, -0.009899495, 0.06), (-0.006363961, -0.006363961, 0.06), (-0.007794229, -0.0045, 0.06)]
        uniform token subdivisionScheme = "none"
        float3 xformOp:rotateXYZ = (0, 0, 0)
        double3 xformOp:translate = (0, 0, 0)
        uniform token[] xformOpOrder = ["xformOp:translate", "xformOp:rotateXYZ"]
    }

    def Mesh "piece_017" (
        prepend apiSchemas = ["PhysicsCollisionAPI", "PhysicsMeshCollisionAPI", "MaterialBindingAPI"]
    )
    {
        int[] faceVertexCounts = [4, 4, 4, 4, 4, 4]
        int[] faceVertexIndices = [3, 2, 1, 0, 4, 5, 6, 7, 0, 1, 5, 4, 1, 2, 6, 5, 2, 3, 7, 6, 3, 0, 4, 7]
        rel material:binding = </Asset/Material>
        rel material:binding:physics = </Asset/Material>
        uniform token physics:approximation = "convexHull"
        point3f[] points = [(-0.009899495, -0.009899495, 0.004), (-0.007, -0.012124356, 0.004), (-0.0045, -0.007794229, 0.004), (-0.006363961, -0.006363961, 0.004), (-0.009899495, -0.009899495, 0.06), (-0.007, -0.012124356, 0.06), (-0.0045, -0.007794229, 0.06), (-0.006363961, -0.006363961, 0.06)]
        uniform token subdivisionScheme = "none"
        float3 xformOp:rotateXYZ = (0, 0, 0)
        double3 xformOp:translate = (0, 0, 0)
        uniform token[] xformOpOrder = ["xformOp:translate", "xformOp:rotateXYZ"]
    }

    def Mesh "piece_018" (
        prepend apiSchemas = ["PhysicsCollisionAPI", "PhysicsMeshCollisionAPI", "MaterialBindingAPI"]
    )
    {
        int[] faceVertexCounts = [4, 4, 4, 4, 4, 4]
        int[] faceVertexIndices = [3, 2, 1, 0, 4, 5, 6, 7, 0, 1, 5, 4, 1, 2, 6, 5, 2, 3, 7, 6, 3, 0, 4, 7]
        rel material:binding = </Asset/Material>
        rel material:binding:physics = </Asset/Material>
        uniform token physics:approximation = "convexHull"
        point3f[] points = [(-0.007, -0.012124356, 0.004), (-0.0036234667, -0.013522961, 0.004), (-0.0023293714, -0.008693333, 0.004), (-0.0045, -0.007794229, 0.004), (-0.007, -0.012124356, 0.06), (-0.0036234667, -0.013522961, 0.06), (-0.0023293714, -0.008693333, 0.06), (-0.0045, -0.007794229, 0.06)]
        uniform token subdivisionScheme = "none"
        float3 xformOp:rotateXYZ = (0, 0, 0)
        double3 xformOp:translate = (0, 0, 0)
        uniform token[] xformOpOrder = ["xformOp:translate", "xformOp:rotateXYZ"]
    }

    def Mesh "piece_019" (
        prepend apiSchemas = ["PhysicsCollisionAPI", "PhysicsMeshCollisionAPI", "MaterialBindingAPI"]
    )
    {
        int[] faceVertexCounts = [4, 4, 4, 4, 4, 4]
        int[] faceVertexIndices = [3, 2, 1, 0, 4, 5, 6, 7, 0, 1, 5, 4, 1, 2, 6, 5, 2, 3, 7, 6, 3, 0, 4, 7]
        rel material:binding = </Asset/Material>
        rel material:binding:physics = </Asset/Material>
        uniform token physics:approximation = "convexHull"
        point3f[] points = [(-0.0036234667, -0.013522961, 0.004), (-2.5717583e-18, -0.014, 0.004), (-1.6532732e-18, -0.009, 0.004), (-0.0023293714, -0.008693333, 0.004), (-0.0036234667, -0.013522961, 0.06), (-2.5717583e-18, -0.014, 0.06), (-1.6532732e-18, -0.009, 0.06), (-0.0023293714, -0.008693333, 0.06)]
        uniform token subdivisionScheme = "none"
        float3 xformOp:rotateXYZ = (0, 0, 0)
        double3 xformOp:translate = (0, 0, 0)
        uniform token[] xformOpOrder = ["xformOp:translate", "xformOp:rotateXYZ"]
    }

    def Mesh "piece_020" (
        prepend apiSchemas = ["PhysicsCollisionAPI", "PhysicsMeshCollisionAPI", "MaterialBindingAPI"]
    )
    {
        int[] faceVertexCounts = [4, 4, 4, 4, 4, 4]
        int[] faceVertexIndices = [3, 2, 1, 0, 4, 5, 6, 7, 0, 1, 5, 4, 1, 2, 6, 5, 2, 3, 7, 6, 3, 0, 4, 7]
        rel material:binding = </Asset/Material>
        rel material:binding:physics = </Asset/Material>
        uniform token physics:approximation = "convexHull"
        point3f[] points = [(-2.5717583e-18, -0.014, 0.004), (0.0036234667, -0.013522961, 0.004), (0.0023293714, -0.008693333, 0.004), (-1.6532732e-18, -0.009, 0.004), (-2.5717583e-18, -0.014, 0.06), (0.0036234667, -0.013522961, 0.06), (0.0023293714, -0.008693333, 0.06), (-1.6532732e-18, -0.009, 0.06)]
        uniform token subdivisionScheme = "none"
        float3 xformOp:rotateXYZ = (0, 0, 0)
        double3 xformOp:translate = (0, 0, 0)
        uniform token[] xformOpOrder = ["xformOp:translate", "xformOp:rotateXYZ"]
    }

    def Mesh "piece_021" (
        prepend apiSchemas = ["PhysicsCollisionAPI", "PhysicsMeshCollisionAPI", "MaterialBindingAPI"]
    )
    {
        int[] faceVertexCounts = [4, 4, 4, 4, 4, 4]
        int[] faceVertexIndices = [3, 2, 1, 0, 4, 5, 6, 7, 0, 1, 5, 4, 1, 2, 6, 5, 2, 3, 7, 6, 3, 0, 4, 7]
        rel material:binding = </Asset/Material>
        rel material:binding:physics = </Asset/Material>
        uniform token physics:approximation = "convexHull"
        point3f[] points = [(0.0036234667, -0.013522961, 0.004), (0.007, -0.012124356, 0.004), (0.0045, -0.007794229, 0.004), (0.0023293714, -0.008693333, 0.004), (0.0036234667, -0.013522961, 0.06), (0.007, -0.012124356, 0.06), (0.0045, -0.007794229, 0.06), (0.0023293714, -0.008693333, 0.06)]
        uniform token subdivisionScheme = "none"
        float3 xformOp:rotateXYZ = (0, 0, 0)
        double3 xformOp:translate = (0, 0, 0)
        uniform token[] xformOpOrder = ["xformOp:translate", "xformOp:rotateXYZ"]
    }

    def Mesh "piece_022" (
        prepend apiSchemas = ["PhysicsCollisionAPI", "PhysicsMeshCollisionAPI", "MaterialBindingAPI"]
    )
    {
        int[] faceVertexCounts = [4, 4, 4, 4, 4, 4]
        int[] faceVertexIndices = [3, 2, 1, 0, 4, 5, 6, 7, 0, 1, 5, 4, 1, 2, 6, 5, 2, 3, 7, 6, 3, 0, 4, 7]
        rel material:binding = </Asset/Material>
        rel material:binding:physics = </Asset/Material>
        uniform token physics:approximation = "convexHull"
        point3f[] points = [(0.007, -0.012124356, 0.004), (0.009899495, -0.009899495, 0.004), (0.006363961, -0.006363961, 0.004), (0.0045, -0.007794229, 0.004), (0.007, -0.012124356, 0.06), (0.009899495, -0.009899495, 0.06), (0.006363961, -0.006363961, 0.06), (0.0045, -0.007794229, 0.06)]
        uniform token subdivisionScheme = "none"
        float3 xformOp:rotateXYZ = (0, 0, 0)
        double3 xformOp:translate = (0, 0, 0)
        uniform token[] xformOpOrder = ["xformOp:translate", "xformOp:rotateXYZ"]
    }

    def Mesh "piece_023" (
        prepend apiSchemas = ["PhysicsCollisionAPI", "PhysicsMeshCollisionAPI", "MaterialBindingAPI"]
    )
    {
        int[] faceVertexCounts = [4, 4, 4, 4, 4, 4]
        int[] faceVertexIndices = [3, 2, 1, 0, 4, 5, 6, 7, 0, 1, 5, 4, 1, 2, 6, 5, 2, 3, 7, 6, 3, 0, 4, 7]
        rel material:binding = </Asset/Material>
        rel material:binding:physics = </Asset/Material>
        uniform token physics:approximation = "convexHull"
        point3f[] points = [(0.009899495, -0.009899495, 0.004), (0.012124356, -0.007, 0.004), (0.007794229, -0.0045, 0.004), (0.006363961, -0.006363961, 0.004), (0.009899495, -0.009899495, 0.06), (0.012124356, -0.007, 0.06), (0.007794229, -0.0045, 0.06), (0.006363961, -0.006363961, 0.06)]
        uniform token subdivisionScheme = "none"
        float3 xformOp:rotateXYZ = (0, 0, 0)
        double3 xformOp:translate = (0, 0, 0)
        uniform token[] xformOpOrder = ["xformOp:translate", "xformOp:rotateXYZ"]
    }

    def Mesh "piece_024" (
        prepend apiSchemas = ["PhysicsCollisionAPI", "PhysicsMeshCollisionAPI", "MaterialBindingAPI"]
    )
    {
        int[] faceVertexCounts = [4, 4, 4, 4, 4, 4]
        int[] faceVertexIndices = [3, 2, 1, 0, 4, 5, 6, 7, 0, 1, 5, 4, 1, 2, 6, 5, 2, 3, 7, 6, 3, 0, 4, 7]
        rel material:binding = </Asset/Material>
        rel material:binding:physics = </Asset/Material>
        uniform token physics:approximation = "convexHull"
        point3f[] points = [(0.012124356, -0.007, 0.004), (0.013522961, -0.0036234667, 0.004), (0.008693333, -0.0023293714, 0.004), (0.007794229, -0.0045, 0.004), (0.012124356, -0.007, 0.06), (0.013522961, -0.0036234667, 0.06), (0.008693333, -0.0023293714, 0.06), (0.007794229, -0.0045, 0.06)]
        uniform token subdivisionScheme = "none"
        float3 xformOp:rotateXYZ = (0, 0, 0)
        double3 xformOp:translate = (0, 0, 0)
        uniform token[] xformOpOrder = ["xformOp:translate", "xformOp:rotateXYZ"]
    }

    def Mesh "piece_025" (
        prepend apiSchemas = ["PhysicsCollisionAPI", "PhysicsMeshCollisionAPI", "MaterialBindingAPI"]
    )
    {
        int[] faceVertexCounts = [4, 4, 4, 4, 4, 4]
        int[] faceVertexIndices = [3, 2, 1, 0, 4, 5, 6, 7, 0, 1, 5, 4, 1, 2, 6, 5, 2, 3, 7, 6, 3, 0, 4, 7]
        rel material:binding = </Asset/Material>
        rel material:binding:physics = </Asset/Material>
        uniform token physics:approximation = "convexHull"
        point3f[] points = [(0.013522961, -0.0036234667, 0.004), (0.014, 0, 0.004), (0.009, 0, 0.004), (0.008693333, -0.0023293714, 0.004), (0.013522961, -0.0036234667, 0.06), (0.014, 0, 0.06), (0.009, 0, 0.06), (0.008693333, -0.0023293714, 0.06)]
        uniform token subdivisionScheme = "none"
        float3 xformOp:rotateXYZ = (0, 0, 0)
        double3 xformOp:translate = (0, 0, 0)
        uniform token[] xformOpOrder = ["xformOp:translate", "xformOp:rotateXYZ"]
    }
}

