#usda 1.0
(
    defaultPrim = "Asset"
    metersPerUnit = 1
    upAxis = "Z"
)

def Xform "Asset" (
    prepend apiSchemas = ["PhysicsRigidBodyAPI", "PhysicsMassAPI"]
)
{
    float physics:mass = 0.08

    def Material "Material" (
        prepend apiSchemas = ["PhysicsMaterialAPI"]
    )
    {
        token outputs:surface.connect = </Asset/Material/Shader.outputs:surface>
        float physics:dynamicFriction = 1
        float physics:restitution = 0
        float physics:staticFriction = 1.2

        def Shader "Shader"
        {
            uniform token info:id = "UsdPreviewSurface"
            color3f inputs:diffuseColor = (0.72, 0.73, 0.75)
            float inputs:metallic = 0.65
            float inputs:roughness = 0.35
            token outputs:surface
        }
    }

    def Cylinder "piece_001" (
        prepend apiSchemas = ["PhysicsCollisionAPI", "MaterialBindingAPI"]
    )
    {
        uniform token axis = "Z"
        double height = 0.008
        rel material:binding = </Asset/Material>
        rel material:binding:physics = </Asset/Material>
        double radius = 0.085
        float3 xformOp:rotateXYZ = (0, 0, 0)
        double3 xformOp:translate = (0, 0, 0.004)
        uniform token[] xformOpOrder = ["xformOp:translate", "xformOp:rotateXYZ"]
    }

    def Mesh "piece_002" (
        prepend apiSchemas = ["PhysicsCollisionAPI", "PhysicsMeshCollisionAPI", "MaterialBindingAPI"]
    )
    {
        int[] faceVertexCounts = [4, 4, 4, 4, 4, 4]
        int[] faceVertexIndices = [3, 2, 1, 0, 4, 5, 6, 7, 0, 1, 5, 4, 1, 2, 6, 5, 2, 3, 7, 6, 3, 0, 4, 7]
        rel material:binding = </Asset/Material>
        rel material:binding:physics = </Asset/Material>
        uniform token physics:approximation = "convexHull"
        point3f[] points = [(0.085, 0, 0.008), (0.08210369, 0.021999618, 0.008), (0.075342216, 0.020187886, 0.008), (0.078, 0, 0.008), (0.085, 0, 0.032), (0.08210369, 0.021999618, 0.032), (0.075342216, 0.020187886, 0.032), (0.078, 0, 0.032)]
        uniform token subdivisionScheme = "none"
        float3 xformOp:rotateXYZ = (0, 0, 0)
        double3 xformOp:translate = (0, 0, 0)
        uniform token[] xformOpOrder = ["xformOp:translate", "xformOp:rotateXYZ"]
    }

    def Mesh "piece_003" (
        prepend apiSchemas = ["PhysicsCollisionAPI", "PhysicsMeshCollisionAPI", "MaterialBindingAPI"]
    )
    {
        int[] faceVertexCounts = [4, 4, 4, 4, 4, 4]
        int[] faceVertexIndices = [3, 2, 1, 0, 4, 5, 6, 7, 0, 1, 5, 4, 1, 2, 6, 5, 2, 3, 7, 6, 3, 0, 4, 7]
        rel material:binding = </Asset/Material>
        rel material:binding:physics = </Asset/Material>
        uniform token physics:approximation = "convexHull"
        point3f[] points = [(0.08210369, 0.021999618, 0.008), (0.07361216, 0.0425, 0.008), (0.06754998, 0.039, 0.008), (0.075342216, 0.020187886, 0.008), (0.08210369, 0.021999618, 0.032), (0.07361216, 0.0425, 0.032), (0.06754998, 0.039, 0.032), (0.075342216, 0.020187886, 0.032)]
        uniform token subdivisionScheme = "none"
        float3 xformOp:rotateXYZ = (0, 0, 0)
        double3 xformOp:translate = (0, 0, 0)
        uniform token[] xformOpOrder = ["xformOp:translate", "xformOp:rotateXYZ"]
    }

    def Mesh "piece_004" (
        prepend apiSchemas = ["PhysicsCollisionAPI", "PhysicsMeshCollisionAPI", "MaterialBindingAPI"]
    )
    {
        int[] faceVertexCounts = [4, 4, 4, 4, 4, 4]
        int[] faceVertexIndices = [3, 2, 1, 0, 4, 5, 6, 7, 0, 1, 5, 4, 1, 2, 6, 5, 2, 3, 7, 6, 3, 0, 4, 7]
        rel material:binding = </Asset/Material>
        rel material:binding:physics = </Asset/Material>
        uniform token physics:approximation = "convexHull"
        point3f[] points = [(0.07361216, 0.0425, 0.008), (0.060104076, 0.060104076, 0.008), (0.055154327, 0.055154327, 0.008), (0.06754998, 0.039, 0.008), (0.07361216, 0.0425, 0.032), (0.060104076, 0.060104076, 0.032), (0.055154327, 0.055154327, 0.032), (0.06754998, 0.039, 0.032)]
        uniform token subdivisionScheme = "none"
        float3 xformOp:rotateXYZ = (0, 0, 0)
        double3 xformOp:translate = (0, 0, 0)
        uniform token[] xformOpOrder = ["xformOp:translate", "xformOp:rotateXYZ"]
    }

    def Mesh "piece_005" (
        prepend apiSchemas = ["PhysicsCollisionAPI", "PhysicsMeshCollisionAPI", "MaterialBindingAPI"]
    )
    {
        int[] faceVertexCounts = [4, 4, 4, 4, 4, 4]
        int[] faceVertexIndices = [3, 2, 1, 0, 4, 5, 6, 7, 0, 1, 5, 4, 1, 2, 6, 5, 2, 3, 7, 6, 3, 0, 4, 7]
        rel material:binding = </Asset/Material>
        rel material:binding:physics = </Asset/Material>
        uniform token physics:approximation = "convexHull"
        point3f[] points = [(0.060104076, 0.060104076, 0.008), (0.0425, 0.07361216, 0.008), (0.039, 0.06754998, 0.008), (0.055154327, 0.055154327, 0.008), (0.060104076, 0.060104076, 0.032), (0.0425, 0.07361216, 0.032), (0.039, 0.06754998, 0.032), (0.055154327, 0.055154327, 0.032)]
        uniform token subdivisionScheme = "none"
        float3 xformOp:rotateXYZ = (0, 0, 0)
        double3 xformOp:translate = (0, 0, 0)
        uniform token[] xformOpOrder = ["xformOp:translate", "xformOp:rotateXYZ"]
    }

    def Mesh "piece_006" (
        prepend apiSchemas = ["PhysicsCollisionAPI", "PhysicsMeshCollisionAPI", "MaterialBindingAPI"]
    )
    {
        int[] faceVertexCounts = [4, 4, 4, 4, 4, 4]
        int[] faceVertexIndices = [3, 2, 1, 0, 4, 5, 6, 7, 0, 1, 5, 4, 1, 2, 6, 5, 2, 3, 7, 6, 3, 0, 4, 7]
        rel material:binding = </Asset/Material>
        rel material:binding:physics = </Asset/Material>
        uniform token physics:approximation = "convexHull"
        point3f[] points = [(0.0425, 0.07361216, 0.008), (0.021999618, 0.08210369, 0.008), (0.020187886, 0.075342216, 0.008), (0.039, 0.06754998, 0.008), (0.0425, 0.07361216, 0.032), (0.021999618, 0.08210369, 0.032), (0.020187886, 0.075342216, 0.032), (0.039, 0.06754998, 0.032)]
        uniform token subdivisionScheme = "none"
        float3 xformOp:rotateXYZ = (0, 0, 0)
        double3 xformOp:translate = (0, 0, 0)
        uniform token[] xformOpOrder = ["xformOp:translate", "xformOp:rotateXYZ"]
    }

    def Mesh "piece_007" (
        prepend apiSchemas = ["PhysicsCollisionAPI", "PhysicsMeshCollisionAPI", "MaterialBindingAPI"]
    )
    {
        int[] faceVertexCounts = [4, 4, 4, 4, 4, 4]
        int[] faceVertexIndices = [3, 2, 1, 0, 4, 5, 6, 7, 0, 1, 5, 4, 1, 2, 6, 5, 2, 3, 7, 6, 3, 0, 4, 7]
        rel material:binding = </Asset/Material>
        rel material:binding:physics = </Asset/Material>
        uniform token physics:approximation = "convexHull"
        point3f[] points = [(0.021999618, 0.08210369, 0.008), (5.204749e-18, 0.085, 0.008), (4.7761227e-18, 0.078, 0.008), (0.020187886, 0.075342216, 0.008), (0.021999618, 0.08210369, 0.032), (5.204749e-18, 0.085, 0.032), (4.7761227e-18, 0.078, 0.032), (0.020187886, 0.075342216, 0.032)]
        uniform token subdivisionScheme = "none"
        float3 xformOp:rotateXYZ = (0, 0, 0)
        double3 xformOp:translate = (0, 0, 0)
        uniform token[] xformOpOrder = ["xformOp:translate", "xformOp:rotateXYZ"]
    }

    def Mesh "piece_008" (
        prepend apiSchemas = ["PhysicsCollisionAPI", "PhysicsMeshCollisionAPI", "MaterialBindingAPI"]
    )
    {
        int[] faceVertexCounts = [4, 4, 4, 4, 4, 4]
        int[] faceVertexIndices = [3, 2, 1, 0, 4, 5, 6, 7, 0, 1, 5, 4, 1, 2, 6, 5, 2, 3, 7, 6, 3, 0, 4, 7]
        rel material:binding = </Asset/Material>
        rel material:binding:physics = </Asset/Material>
        uniform token physics:approximation = "convexHull"
        point3f[] points = [(5.204749e-18, 0.085, 0.008), (-0.021999618, 0.08210369, 0.008), (-0.020187886, 0.075342216, 0.008), (4.7761227e-18, 0.078, 0.008), (5.204749e-18, 0.085, 0.032), (-0.021999618, 0.08210369, 0.032), (-0.020187886, 0.075342216, 0.032), (4.7761227e-18, 0.078, 0.032)]
        uniform token subdivisionScheme = "none"
        float3 xformOp:rotateXYZ = (0, 0, 0)
        double3 xformOp:translate = (0, 0, 0)
        uniform token[] xformOpOrder = ["xformOp:translate", "xformOp:rotateXYZ"]
    }

    def Mesh "piece_009" (
        prepend apiSchemas = ["PhysicsCollisionAPI", "PhysicsMeshCollisionAPI", "MaterialBindingAPI"]
    )
    {
        int[] faceVertexCounts = [4, 4, 4, 4, 4, 4]
        int[] faceVertexIndices = [3, 2, 1, 0, 4, 5, 6, 7, 0, 1, 5, 4, 1, 2, 6, 5, 2, 3, 7, 6, 3, 0, 4, 7]
        rel material:binding = </Asset/Material>
        rel material:binding:physics = </Asset/Material>
        uniform token physics:approximation = "convexHull"
        point3f[] points = [(-0.021999618, 0.08210369, 0.008), (-0.0425, 0.07361216, 0.008), (-0.039, 0.06754998, 0.008), (-0.020187886, 0.075342216, 0.008), (-0.021999618, 0.08210369, 0.032), (-0.0425, 0.07361216, 0.032), (-0.039, 0.06754998, 0.032), (-0.020187886, 0.075342216, 0.032)]
        uniform token subdivisionScheme = "none"
        float3 xformOp:rotateXYZ = (0, 0, 0)
        double3 xformOp:translate = (0, 0, 0)
        uniform token[] xformOpOrder = ["xformOp:translate", "xformOp:rotateXYZ"]
    }

    def Mesh "piece_010" (
        prepend apiSchemas = ["PhysicsCollisionAPI", "PhysicsMeshCollisionAPI", "MaterialBindingAPI"]
    )
    {
        int[] faceVertexCounts = [4, 4, 4, 4, 4, 4]
        int[] faceVertexIndices = [3, 2, 1, 0, 4, 5, 6, 7, 0, 1, 5, 4, 1, 2, 6, 5, 2, 3, 7, 6, 3, 0, 4, 7]
        rel material:binding = </Asset/Material>
        rel material:binding:physics = </Asset/Material>
        uniform token physics:approximation = "convexHull"
        point3f[] points = [(-0.0425, 0.07361216, 0.008), (-0.060104076, 0.060104076, 0.008), (-0.055154327, 0.055154327, 0.008), (-0.039, 0.06754998, 0.008), (-0.0425, 0.07361216, 0.032), (-0.060104076, 0.060104076, 0.032), (-0.055154327, 0.055154327, 0.032), (-0.039, 0.06754998, 0.032)]
        uniform token subdivisionScheme = "none"
        float3 xformOp:rotateXYZ = (0, 0, 0)
        double3 xformOp:translate = (0, 0, 0)
        uniform token[] xformOpOrder = ["xformOp:translate", "xformOp:rotateXYZ"]
    }

    def Mesh "piece_011" (
        prepend apiSchemas = ["PhysicsCollisionAPI", "PhysicsMeshCollisionAPI", "MaterialBindingAPI"]
    )
    {
        int[] faceVertexCounts = [4, 4, 4, 4, 4, 4]
        int[] faceVertexIndices = [3, 2, 1, 0, 4, 5, 6, 7, 0, 1, 5, 4, 1, 2, 6, 5, 2, 3, 7, 6, 3, 0, 4, 7]
        rel material:binding = </Asset/Material>
        rel material:binding:physics = </Asset/Material>
        uniform token physics:approximation = "convexHull"
        point3f[] points = [(-0.060104076, 0.060104076, 0.008), (-0.07361216, 0.0425, 0.008), (-0.06754998, 0.039, 0.008), (-0.055154327, 0.055154327, 0.008), (-0.060104076, 0.060104076, 0.032), (-0.07361216, 0.0425, 0.032), (-0.06754998, 0.039, 0.032), (-0.055154327, 0.055154327, 0.032)]
        uniform token subdivisionScheme = "none"
        float3 xformOp:rotateXYZ = (0, 0, 0)
        double3 xformOp:translate = (0, 0, 0)
        uniform token[] xformOpOrder = ["xformOp:translate", "xformOp:rotateXYZ"]
    }

    def Mesh "piece_012" (
        prepend apiSchemas = ["PhysicsCollisionAPI", "PhysicsMeshCollisionAPI", "MaterialBindingAPI"]
    )
    {
        int[] faceVertexCounts = [4, 4, 4, 4, 4, 4]
        int[] faceVertexIndices = [3, 2, 1, 0, 4, 5, 6, 7, 0, 1, 5, 4, 1, 2, 6, 5, 2, 3, 7, 6, 3, 0, 4, 7]
        rel material:binding = </Asset/Material>
        rel material:binding:physics = </Asset/Material>
        uniform token physics:approximation = "convexHull"
        point3f[] points = [(-0.07361216, 0.0425, 0.008), (-0.08210369, 0.021999618, 0.008), (-0.075342216, 0.020187886, 0.008), (-0.06754998, 0.039, 0.008), (-0.07361216, 0.0425, 0.032), (-0.08210369, 0.021999618, 0.032), (-0.075342216, 0.020187886, 0.032), (-0.06754998, 0.039, 0.032)]
        uniform token subdivisionScheme = "none"
        float3 xformOp:rotateXYZ = (0, 0, 0)
        double3 xformOp:translate = (0, 0, 0)
        uniform token[] xformOpOrder = ["xformOp:translate", "xformOp:rotateXYZ"]
    }

    def Mesh "piece_013" (
        prepend apiSchemas = ["PhysicsCollisionAPI", "PhysicsMeshCollisionAPI", "MaterialBindingAPI"]
    )
    {
        int[] faceVertexCounts = [4, 4, 4, 4, 4, 4]
        int[] faceVertexIndices = [3, 2, 1, 0, 4, 5, 6, 7, 0, 1, 5, 4, 1, 2, 6, 5, 2, 3, 7, 6, 3, 0, 4, 7]
        rel material:binding = </Asset/Material>
        rel material:binding:physics = </Asset/Material>
        uniform token physics:approximation = "convexHull"
        point3f[] points = [(-0.08210369, 0.021999618, 0.008), (-0.085, 1.0409498e-17, 0.008), (-0.078, 9.552245e-18, 0.008), (-0.075342216, 0.020187886, 0.008), (-0.08210369, 0.021999618, 0.032), (-0.085, 1.0409498e-17, 0.032), (-0.078, 9.552245e-18, 0.032), (-0.075342216, 0.020187886, 0.032)]
        uniform token subdivisionScheme = "none"
        float3 xformOp:rotateXYZ = (0, 0, 0)
        double3 xformOp:translate = (0, 0, 0)
        uniform token[] xformOpOrder = ["xformOp:translate", "xformOp:rotateXYZ"]
    }

    def Mesh "piece_014" (
        prepend apiSchemas = ["PhysicsCollisionAPI", "PhysicsMeshCollisionAPI", "MaterialBindingAPI"]
    )
    {
        int[] faceVertexCounts = [4, 4, 4, 4, 4, 4]
        int[] faceVertexIndices = [3, 2, 1, 0, 4, 5, 6, 7, 0, 1, 5, 4, 1, 2, 6, 5, 2, 3, 7, 6, 3, 0, 4, 7]
        rel material:binding = </Asset/Material>
        rel material:binding:physics = </Asset/Material>
        uniform token physics:approximation = "convexHull"
        point3f[] points = [(-0.085, 1.0409498e-17, 0.008), (-0.08210369, -0.021999618, 0.008), (-0.075342216, -0.020187886, 0.008), (-0.078, 9.552245e-18, 0.008), (-0.085, 1.0409498e-17, 0.032), (-0.08210369, -0.021999618, 0.032), (-0.075342216, -0.020187886, 0.032), (-0.078, 9.552245e-18, 0.032)]
        uniform token subdivisionScheme = "none"
        float3 xformOp:rotateXYZ = (0, 0, 0)
        double3 xformOp:translate = (0, 0, 0)
        uniform token[] xformOpOrder = ["xformOp:translate", "xformOp:rotateXYZ"]
    }

    def Mesh "piece_015" (
        prepend apiSchemas = ["PhysicsCollisionAPI", "PhysicsMeshCollisionAPI", "MaterialBindingAPI"]
    )
    {
        int[] faceVertexCounts = [4, 4, 4, 4, 4, 4]
        int[] faceVertexIndices = [3, 2, 1, 0, 4, 5, 6, 7, 0, 1, 5, 4, 1, 2, 6, 5, 2, 3, 7, 6, 3, 0, 4, 7]
        rel material:binding = </Asset/Material>
        rel material:binding:physics = </Asset/Material>
        uniform token physics:approximation = "convexHull"
        point3f[] points = [(-0.08210369, -0.021999618, 0.008), (-0.07361216, -0.0425, 0.008), (-0.06754998, -0.039, 0.008), (-0.075342216, -0.020187886, 0.008), (-0.08210369, -0.021999618, 0.032), (-0.07361216, -0.0425, 0.032), (-0.06754998, -0.039, 0.032), (-0.075342216, -0.020187886, 0.032)]
        uniform token subdivisionScheme = "none"
        float3 xformOp:rotateXYZ = (0, 0, 0)
        double3 xformOp:translate = (0, 0, 0)
        uniform token[] xformOpOrder = ["xformOp:translate", "xformOp:rotateXYZ"]
    }

    def Mesh "piece_016" (
        prepend apiSchemas = ["PhysicsCollisionAPI", "PhysicsMeshCollisionAPI", "MaterialBindingAPI"]
    )
    {
        int[] faceVertexCounts = [4, 4, 4, 4, 4, 4]
        int[] faceVertexIndices = [3, 2, 1, 0, 4, 5, 6, 7, 0, 1, 5, 4, 1, 2, 6, 5, 2, 3, 7, 6, 3, 0, 4, 7]
        rel material:binding = </Asset/Material>
        rel material:binding:physics = </Asset/Material>
        uniform token physics:approximation = "convexHull"
        point3f[] points = [(-0.07361216, -0.0425, 0.008), (-0.060104076, -0.060104076, 0.008), (-0.055154327, -0.055154327, 0.008), (-0.06754998, -0.039, 0.008), (-0.07361216, -0.0425, 0.032), (-0.060104076, -0.060104076, 0.032), (-0.055154327, -0.055154327, 0.032), (-0.06754998, -0.039, 0.032)]
        uniform token subdivisionScheme = "none"
        float3 xformOp:rotateXYZ = (0, 0, 0)
        double3 xformOp:translate = (0, 0, 0)
        uniform token[] xformOpOrder = ["xformOp:translate", "xformOp:rotateXYZ"]
    }

    def Mesh "piece_017" (
        prepend apiSchemas = ["PhysicsCollisionAPI", "PhysicsMeshCollisionAPI", "MaterialBindingAPI"]
    )
    {
        int[] faceVertexCounts = [4, 4, 4, 4, 4, 4]
        int[] faceVertexIndices = [3, 2, 1, 0, 4, 5, 6, 7, 0, 1, 5, 4, 1, 2, 6, 5, 2, 3, 7, 6, 3, 0, 4, 7]
        rel material:binding = </Asset/Material>
        rel material:binding:physics = </Asset/Material>
        uniform token physics:approximation = "convexHull"
        point3f[] points = [(-0.060104076, -0.060104076, 0.008), (-0.0425, -0.07361216, 0.008), (-0.039, -0.06754998, 0.008), (-0.055154327, -0.055154327, 0.008), (-0.060104076, -0.060104076, 0.032), (-0.0425, -0.07361216, 0.032), (-0.039, -0.06754998, 0.032), (-0.055154327, -0.055154327, 0.032)]
        uniform token subdivisionScheme = "none"
        float3 xformOp:rotateXYZ = (0, 0, 0)
        double3 xformOp:translate = (0, 0, 0)
        uniform token[] xformOpOrder = ["xformOp:translate", "xformOp:rotateXYZ"]
    }

    def Mesh "piece_018" (
        prepend apiSchemas = ["PhysicsCollisionAPI", "PhysicsMeshCollisionAPI", "MaterialBindingAPI"]
    )
    {
        int[] faceVertexCounts = [4, 4, 4, 4, 4, 4]
        int[] faceVertexIndices = [3, 2, 1, 0, 4, 5, 6, 7, 0, 1, 5, 4, 1, 2, 6, 5, 2, 3, 7, 6, 3, 0, 4, 7]
        rel material:binding = </Asset/Material>
        rel material:binding:physics = </Asset/Material>
        uniform token physics:approximation = "convexHull"
        point3f[] points = [(-0.0425, -0.07361216, 0.008), (-0.021999618, -0.08210369, 0.008), (-0.020187886, -0.075342216, 0.008), (-0.039, -0.06754998, 0.008), (-0.0425, -0.07361216, 0.032), (-0.021999618, -0.08210369, 0.032), (-0.020187886, -0.075342216, 0.032), (-0.039, -0.06754998, 0.032)]
        uniform token subdivisionScheme = "none"
        float3 xformOp:rotateXYZ = (0, 0, 0)
        double3 xformOp:translate = (0, 0, 0)
        uniform token[] xformOpOrder = ["xformOp:translate", "xformOp:rotateXYZ"]
    }

    def Mesh "piece_019" (
        prepend apiSchemas = ["PhysicsCollisionAPI", "PhysicsMeshCollisionAPI", "MaterialBindingAPI"]
    )
    {
        int[] faceVertexCounts = [4, 4, 4, 4, 4, 4]
        int[] faceVertexIndices = [3, 2, 1, 0, 4, 5, 6, 7, 0, 1, 5, 4, 1, 2, 6, 5, 2, 3, 7, 6, 3, 0, 4, 7]
        rel material:binding = </Asset/Material>
        rel material:binding:physics = </Asset/Material>
        uniform token physics:approximation = "convexHull"
        point3f[] points = [(-0.021999618, -0.08210369, 0.008), (-1.5614247e-17, -0.085, 0.008), (-1.4328368e-17, -0.078, 0.008), (-0.020187886, -0.075342216, 0.008), (-0.021999618, -0.08210369, 0.032), (-1.5614247e-17, -0.085, 0.032), (-1.4328368e-17, -0.078, 0.032), (-0.020187886, -0.075342216, 0.032)]
        uniform token subdivisionScheme = "none"
        float3 xformOp:rotateXYZ = (0, 0, 0)
        double3 xformOp:translate = (0, 0, 0)
        uniform token[] xformOpOrder = ["xformOp:translate", "xformOp:rotateXYZ"]
    }

    def Mesh "piece_020" (
        prepend apiSchemas = ["PhysicsCollisionAPI", "PhysicsMeshCollisionAPI", "MaterialBindingAPI"]
    )
    {
        int[] faceVertexCounts = [4, 4, 4, 4, 4, 4]
        int[] faceVertexIndices = [3, 2, 1, 0, 4, 5, 6, 7, 0, 1, 5, 4, 1, 2, 6, 5, 2, 3, 7, 6, 3, 0, 4, 7]
        rel material:binding = </Asset/Material>
        rel material:binding:physics = </Asset/Material>
        uniform token physics:approximation = "convexHull"
        point3f[] points = [(-1.5614247e-17, -0.085, 0.008), (0.021999618, -0.08210369, 0.008), (0.020187886, -0.075342216, 0.008), (-1.4328368e-17, -0.078, 0.008), (-1.5614247e-17, -0.085, 0.032), (0.021999618, -0.08210369, 0.032), (0.020187886, -0.075342216, 0.032), (-1.4328368e-17, -0.078, 0.032)]
        uniform token subdivisionScheme = "none"
        float3 xformOp:rotateXYZ = (0, 0, 0)
        double3 xformOp:translate = (0, 0, 0)
        uniform token[] xformOpOrder = ["xformOp:translate", "xformOp:rotateXYZ"]
    }

    def Mesh "piece_021" (
        prepend apiSchemas = ["PhysicsCollisionAPI", "PhysicsMeshCollisionAPI", "MaterialBindingAPI"]
    )
    {
        int[] faceVertexCounts = [4, 4, 4, 4, 4, 4]
        int[] faceVertexIndices = [3, 2, 1, 0, 4, 5, 6, 7, 0, 1, 5, 4, 1, 2, 6, 5, 2, 3, 7, 6, 3, 0, 4, 7]
        rel material:binding = </Asset/Material>
        rel material:binding:physics = </Asset/Material>
        uniform token physics:approximation = "convexHull"
        point3f[] points = [(0.021999618, -0.08210369, 0.008), (0.0425, -0.07361216, 0.008), (0.039, -0.06754998, 0.008), (0.020187886, -0.075342216, 0.008), (0.021999618, -0.08210369, 0.032), (0.0425, -0.07361216, 0.032), (0.039, -0.06754998, 0.032), (0.020187886, -0.075342216, 0.032)]
        uniform token subdivisionScheme = "none"
        float3 xformOp:rotateXYZ = (0, 0, 0)
        double3 xformOp:translate = (0, 0, 0)
        uniform token[] xformOpOrder = ["xformOp:translate", "xformOp:rotateXYZ"]
    }

    def Mesh "piece_022" (
        prepend apiSchemas = ["PhysicsCollisionAPI", "PhysicsMeshCollisionAPI", "MaterialBindingAPI"]
    )
    {
        int[] faceVertexCounts = [4, 4, 4, 4, 4, 4]
        int[] faceVertexIndices = [3, 2, 1, 0, 4, 5, 6, 7, 0, 1, 5, 4, 1, 2, 6, 5, 2, 3, 7, 6, 3, 0, 4, 7]
        rel material:binding = </Asset/Material>
        rel material:binding:physics = </Asset/Material>
        uniform token physics:approximation = "convexHull"
        point3f[] points = [(0.0425, -0.07361216, 0.008), (0.060104076, -0.060104076, 0.008), (0.055154327, -0.055154327, 0.008), (0.039, -0.06754998, 0.008), (0.0425, -0.07361216, 0.032), (0.060104076, -0.060104076, 0.032), (0.055154327, -0.055154327, 0.032), (0.039, -0.06754998, 0.032)]
        uniform token subdivisionScheme = "none"
        float3 xformOp:rotateXYZ = (0, 0, 0)
        double3 xformOp:translate = (0, 0, 0)
        uniform token[] xformOpOrder = ["xformOp:translate", "xformOp:rotateXYZ"]
    }

    def Mesh "piece_023" (
        prepend apiSchemas = ["PhysicsCollisionAPI", "PhysicsMeshCollisionAPI", "MaterialBindingAPI"]
    )
    {
        int[] faceVertexCounts = [4, 4, 4, 4, 4, 4]
        int[] faceVertexIndices = [3, 2, 1, 0, 4, 5, 6, 7, 0, 1, 5, 4, 1, 2, 6, 5, 2, 3, 7, 6, 3, 0, 4, 7]
        rel material:binding = </Asset/Material>
        rel material:binding:physics = </Asset/Material>
        uniform token physics:approximation = "convexHull"
        point3f[] points = [(0.060104076, -0.060104076, 0.008), (0.07361216, -0.0425, 0.008), (0.06754998, -0.039, 0.008), (0.055154327, -0.055154327, 0.008), (0.060104076, -0.060104076, 0.032), (0.07361216, -0.0425, 0.032), (0.06754998, -0.039, 0.032), (0.055154327, -0.055154327, 0.032)]
        uniform token subdivisionScheme = "none"
        float3 xformOp:rotateXYZ = (0, 0, 0)
        double3 xformOp:translate = (0, 0, 0)
        uniform token[] xformOpOrder = ["xformOp:translate", "xformOp:rotateXYZ"]
    }

    def Mesh "piece_024" (
        prepend apiSchemas = ["PhysicsCollisionAPI", "PhysicsMeshCollisionAPI", "MaterialBindingAPI"]
    )
    {
        int[] faceVertexCounts = [4, 4, 4, 4, 4, 4]
        int[] faceVertexIndices = [3, 2, 1, 0, 4, 5, 6, 7, 0, 1, 5, 4, 1, 2, 6, 5, 2, 3, 7, 6, 3, 0, 4, 7]
        rel material:binding = </Asset/Material>
        rel material:binding:physics = </Asset/Material>
        uniform token physics:approximation = "convexHull"
        point3f[] points = [(0.07361216, -0.0425, 0.008), (0.08210369, -0.021999618, 0.008), (0.075342216, -0.020187886, 0.008), (0.06754998, -0.039, 0.008), (0.07361216, -0.0425, 0.032), (0.08210369, -0.021999618, 0.032), (0.075342216, -0.020187886, 0.032), (0.06754998, -0.039, 0.032)]
        uniform token subdivisionScheme = "none"
        float3 xformOp:rotateXYZ = (0, 0, 0)
        double3 xformOp:translate = (0, 0, 0)
        uniform token[] xformOpOrder = ["xformOp:translate", "xformOp:rotateXYZ"]
    }

    def Mesh "piece_025" (
        prepend apiSchemas = ["PhysicsCollisionAPI", "PhysicsMeshCollisionAPI", "MaterialBindingAPI"]
    )
    {
        int[] faceVertexCounts = [4, 4, 4, 4, 4, 4]
        int[] faceVertexIndices = [3, 2, 1, 0, 4, 5, 6, 7, 0, 1, 5, 4, 1, 2, 6, 5, 2, 3, 7, 6, 3, 0, 4, 7]
        rel material:binding = </Asset/Material>
        rel material:binding:physics = </Asset/Material>
        uniform token physics:approximation = "convexHull"
        point3f[] points = [(0.08210369, -0.021999618, 0.008), (0.085, 0, 0.008), (0.078, 0, 0.008), (0.075342216, -0.020187886, 0.008), (0.08210369, -0.021999618, 0.032), (0.085, 0, 0.032), (0.078, 0, 0.032), (0.075342216, -0.020187886, 0.032)]
        uniform token subdivisionScheme = "none"
        float3 xformOp:rotateXYZ = (0, 0, 0)
        double3 xformOp:translate = (0, 0, 0)
        uniform token[] xformOpOrder = ["xformOp:translate", "xformOp:rotateXYZ"]
    }
}

